<svg width="131" height="70" viewBox="0 0 131 70" fill="none" xmlns="http://www.w3.org/2000/svg">
<path d="M23.9 36.65C22.9667 41.0167 22.0167 44.8833 21.05 48.25C20.0833 51.6167 19.0167 54.8167 17.85 57.85C16.6833 58.2167 15.3667 58.5 13.9 58.7C12.4667 58.9 11.05 59.0167 9.65 59.05C7.45 53.0167 5.56667 47.0833 4 41.25C2.43333 35.4167 1.1 29.4 -1.76951e-08 23.2C1.76667 22.6667 3.58333 22.25 5.45 21.95C7.31667 21.6167 9.23333 21.4167 11.2 21.35C11.5333 24.95 12.0333 28.8167 12.7 32.95C13.4 37.05 14.2833 41.4333 15.35 46.1C16.1167 43.4333 16.8167 40.65 17.45 37.75C18.1167 34.85 18.8667 31.0833 19.7 26.45C21.4667 26.05 23.35 25.75 25.35 25.55C27.35 25.3167 29.0833 25.2167 30.55 25.25C30.6833 26.1167 30.8167 27.05 30.95 28.05C31.0833 29.05 31.2833 30.5333 31.55 32.5C31.9833 35.4667 32.3 37.7167 32.5 39.25C32.7333 40.7833 32.95 42.2167 33.15 43.55C34.55 39.45 35.7 35.4 36.6 31.4C37.5333 27.4 38.2 23.4333 38.6 19.5C40.4 19.6 42.0667 19.9333 43.6 20.5C45.1333 21.0667 46.4833 21.8333 47.65 22.8C46.4833 28.5667 44.7333 34.4333 42.4 40.4C40.1 46.3333 37.5167 51.5667 34.65 56.1C33.65 56.2667 32.5667 56.4167 31.4 56.55C30.2333 56.6833 28.9667 56.7833 27.6 56.85C27.5667 56.6833 27 54.0667 25.9 49C24.8333 43.9 24.1667 39.7833 23.9 36.65ZM86.7391 55.7C84.9057 56.4 83.2057 56.8833 81.6391 57.15C80.1057 57.4167 78.3391 57.55 76.3391 57.55C76.6391 54.1833 76.8891 50.25 77.0891 45.75C77.2891 41.25 77.4557 36.4833 77.5891 31.45C76.3557 33.5167 75.2057 35.65 74.1391 37.85C73.0724 40.05 72.0891 42.3167 71.1891 44.65C70.3891 44.8833 69.4224 45.0167 68.2891 45.05C67.1891 45.0833 66.1224 45 65.0891 44.8C64.1224 42.6333 63.0891 40.5167 61.9891 38.45C60.8891 36.35 59.7224 34.3167 58.4891 32.35C58.4891 36.3833 58.7057 40.3833 59.1391 44.35C59.6057 48.2833 60.2224 51.5667 60.9891 54.2C60.0891 54.4667 58.7224 54.7 56.8891 54.9C55.0557 55.1 53.3557 55.2 51.7891 55.2C51.1557 50.8333 50.6224 45.2667 50.1891 38.5C49.7557 31.7 49.5391 25.7167 49.5391 20.55C50.9724 19.55 52.5391 18.7 54.2391 18C55.9724 17.3 57.5891 16.85 59.0891 16.65C61.4891 19.75 63.4891 22.5833 65.0891 25.15C66.7224 27.7167 68.1057 30.2167 69.2391 32.65C70.5057 29.7167 71.8891 26.9167 73.3891 24.25C74.9224 21.55 76.5391 19.0333 78.2391 16.7C79.5724 16.9 80.9057 17.2 82.2391 17.6C83.5724 17.9667 84.8391 18.4333 86.0391 19C86.2724 23.5667 86.4391 29.1333 86.5391 35.7C86.6724 42.2667 86.7391 48.9333 86.7391 55.7ZM111.035 47.4C110.301 51.2667 108.968 54.2333 107.035 56.3C105.101 58.3667 102.701 59.4 99.8348 59.4C97.1348 59.4 94.7181 58.3333 92.5848 56.2C90.4514 54.1 89.2181 51.5833 88.8848 48.65C89.8848 47.7833 91.0014 47.1 92.2348 46.6C93.4681 46.0667 94.8348 45.7 96.3348 45.5C96.8014 48.5333 97.2514 50.5333 97.6848 51.5C98.1514 52.4667 98.7514 52.95 99.4848 52.95C100.485 52.95 101.201 52.25 101.635 50.85C102.068 49.4167 102.285 47.1667 102.285 44.1C102.285 40.6333 102.151 36.7167 101.885 32.35C101.618 27.9833 101.251 24 100.785 20.4C101.551 19.8667 102.551 19.45 103.785 19.15C105.018 18.85 106.301 18.7 107.635 18.7C108.568 18.7 109.418 18.75 110.185 18.85C110.951 18.95 111.718 19.1 112.485 19.3C112.518 20.3333 112.551 21.5 112.585 22.8C112.618 24.0667 112.635 25.4167 112.635 26.85C112.635 31.3167 112.518 35.0667 112.285 38.1C112.051 41.1 111.635 44.2 111.035 47.4Z" fill="#FFD900"/>
</svg>
